# xmcd
#
# Track frame offsets:
# 183
# 12078
# 26883
# 43273
# 57675
# 72218
# 86503
# 102765
# 116995
# 132625
# 146980
# 163050
# 176448
# 191133
# 205693
# 217330
# 226583
# 239733
# 253703
# 264183
#
# Disc length: 3696 seconds
#
#
# Revision: 0
# Processed by: cddbd v1.5.2PL0 Copyright (c) Steve Scherf et al.
# Submitted via: FreeRIP 2.951 
#
DISCID=360e6e14
DTITLE=Radi-Ensemble - 
DYEAR=1900
DGENRE=Ballad
TTITLE0=Sonja Addio
TTITLE1=Wacht op mij Mona Lisa
TTITLE2=Ik ruil jou nooit meer voor een ander
TTITLE3=Juanita
TTITLE4=Maar voor mij is er een dat ben jij
TTITLE5=Meisjes in bikini
TTITLE6=Jij alleen Magdalena
TTITLE7=Huil maar niet, kleine Eva
TTITLE8=Ramona
TTITLE9=Wini wini
TTITLE10=Yo te quiero
TTITLE11=Bella bella donna
TTITLE12=In San Antonio
TTITLE13=Bye bye tot morgen
TTITLE14=Eenzaam zonder jou, Monja
TTITLE15=Radi-Fox
TTITLE16=Kijk nog eenmaal in mijn ogen,
TTITLE17=Kom weer naar mijn eiland
TTITLE18=Ole wij dansen de mambo
TTITLE19=Steeds roept mijn hart weer naar jou
EXTD=
EXTT0=
EXTT1=
EXTT2=
EXTT3=
EXTT4=
EXTT5=
EXTT6=
EXTT7=
EXTT8=
EXTT9=
EXTT10=
EXTT11=
EXTT12=
EXTT13=
EXTT14=
EXTT15=
EXTT16=
EXTT17=
EXTT18=
EXTT19=
PLAYORDER=
